<svg width="36" height="36" viewBox="0 0 36 36" fill="none" xmlns="http://www.w3.org/2000/svg">
<path fill-rule="evenodd" clip-rule="evenodd" d="M35 18C35 27.3888 27.3888 35 18 35C8.61118 35 1 27.3888 1 18C1 8.61118 8.61118 1 18 1C27.3888 1 35 8.61118 35 18ZM12.384 16.4427C10.681 17.1863 8.93128 17.9503 7.33126 18.8316C6.4958 19.4433 7.60619 19.876 8.64795 20.2819C8.81355 20.3464 8.97739 20.4102 9.13145 20.474C9.25966 20.5134 9.39 20.555 9.5221 20.597C10.6807 20.9661 11.9726 21.3778 13.0974 20.7586C14.9452 19.6972 16.6889 18.47 18.4313 17.2439C19.0022 16.8421 19.5729 16.4405 20.147 16.0448C20.1739 16.0276 20.2043 16.0079 20.2375 15.9864C20.7266 15.6693 21.8267 14.9562 21.4198 15.9388C20.4576 16.9911 19.4269 17.9226 18.3906 18.8592C17.6922 19.4904 16.9913 20.1239 16.307 20.7983C15.7111 21.2825 15.0922 22.2562 15.7595 22.9343C17.2966 24.0103 18.8576 25.0602 20.4177 26.1095C20.9253 26.4509 21.433 26.7923 21.9396 27.1346C22.7983 27.8201 24.1402 27.2656 24.329 26.1944C24.4129 25.7016 24.4972 25.2088 24.5815 24.7161C25.0473 21.9927 25.5132 19.2684 25.9248 16.5362C25.9808 16.1076 26.0442 15.6791 26.1077 15.2503C26.2614 14.2111 26.4154 13.1707 26.4635 12.1259C26.3396 11.0832 25.0753 11.3125 24.3718 11.5469C20.7556 12.9229 17.1756 14.401 13.6097 15.905C13.2057 16.084 12.7962 16.2627 12.384 16.4427Z" stroke="white"/>
</svg>
