<svg width="56" height="56" viewBox="0 0 56 56" fill="none" xmlns="http://www.w3.org/2000/svg">
<path fill-rule="evenodd" clip-rule="evenodd" d="M0 28C0 12.536 12.536 0 28 0C43.464 0 56 12.536 56 28C56 43.464 43.464 56 28 56C12.536 56 0 43.464 0 28ZM29.4647 37.1885C29.4647 37.1885 30.0037 37.1297 30.2798 36.8386C30.5325 36.5719 30.5238 36.0686 30.5238 36.0686C30.5238 36.0686 30.4902 33.7184 31.6018 33.3714C32.6974 33.0302 34.1041 35.6442 35.5971 36.6493C36.7248 37.4093 37.5808 37.243 37.5808 37.243L41.5702 37.1885C41.5702 37.1885 43.6562 37.0623 42.6672 35.452C42.5854 35.3201 42.0902 34.2605 39.7019 32.0838C37.1995 29.8053 37.5355 30.1739 40.5476 26.2321C42.3824 23.8317 43.1157 22.3663 42.8864 21.7397C42.6687 21.1403 41.3189 21.2995 41.3189 21.2995L36.8285 21.3267C36.8285 21.3267 36.4954 21.2823 36.2486 21.4271C36.0075 21.569 35.8512 21.9003 35.8512 21.9003C35.8512 21.9003 35.1413 23.7572 34.1933 25.3373C32.1934 28.6697 31.3944 28.8461 31.0672 28.6396C30.3061 28.1564 30.496 26.701 30.496 25.6671C30.496 22.4365 30.9956 21.0901 29.5246 20.7417C29.0367 20.6255 28.6773 20.5495 27.4284 20.5366C25.8259 20.5209 24.4703 20.5424 23.7019 20.9109C23.1907 21.1561 22.7962 21.7038 23.0373 21.7354C23.3338 21.7741 24.0058 21.9132 24.3622 22.3892C24.8223 23.0044 24.8063 24.3838 24.8063 24.3838C24.8063 24.3838 25.0707 28.1865 24.1884 28.6582C23.5836 28.9823 22.7539 28.3213 20.9703 25.2972C20.0573 23.7486 19.3678 22.0365 19.3678 22.0365C19.3678 22.0365 19.2349 21.7167 18.9968 21.5447C18.709 21.3368 18.3073 21.2722 18.3073 21.2722L14.0403 21.2995C14.0403 21.2995 13.3991 21.3167 13.1639 21.5906C12.955 21.8329 13.1478 22.3362 13.1478 22.3362C13.1478 22.3362 16.4886 30.009 20.272 33.8762C23.7414 37.4208 27.6796 37.1885 27.6796 37.1885H29.4647Z" fill="white"/>
</svg>
