<svg width="36" height="36" viewBox="0 0 36 36" fill="none" xmlns="http://www.w3.org/2000/svg">
<path fill-rule="evenodd" clip-rule="evenodd" d="M1 18C1 8.61116 8.61116 1 18 1C27.3888 1 35 8.61116 35 18C35 27.3888 27.3888 35 18 35C8.61116 35 1 27.3888 1 18Z" fill="#611089" stroke="white"/>
<path fill-rule="evenodd" clip-rule="evenodd" d="M18.0393 23.8622C18.0393 23.8622 18.3666 23.8265 18.5342 23.6498C18.6877 23.4879 18.6823 23.1823 18.6823 23.1823C18.6823 23.1823 18.6619 21.7554 19.3369 21.5447C20.002 21.3375 20.8561 22.9246 21.7625 23.5349C22.4472 23.9963 22.967 23.8953 22.967 23.8953L25.3891 23.8622C25.3891 23.8622 26.6556 23.7856 26.0551 22.808C26.0055 22.7279 25.7048 22.0845 24.2547 20.763C22.7355 19.3796 22.9395 19.6033 24.7683 17.2101C25.8822 15.7528 26.3274 14.863 26.1882 14.4826C26.056 14.1187 25.2365 14.2153 25.2365 14.2153L22.5102 14.2319C22.5102 14.2319 22.308 14.2049 22.1581 14.2928C22.0118 14.379 21.9169 14.5801 21.9169 14.5801C21.9169 14.5801 21.4858 15.7075 20.9102 16.6669C19.6961 18.6901 19.2109 18.7972 19.0123 18.6718C18.5502 18.3784 18.6655 17.4948 18.6655 16.8671C18.6655 14.9057 18.9688 14.0882 18.0757 13.8767C17.7795 13.8062 17.5613 13.76 16.803 13.7522C15.8301 13.7426 15.007 13.7557 14.5405 13.9794C14.2301 14.1283 13.9906 14.4608 14.137 14.48C14.317 14.5035 14.725 14.5879 14.9414 14.877C15.2208 15.2504 15.211 16.0879 15.211 16.0879C15.211 16.0879 15.3715 18.3967 14.8358 18.6831C14.4687 18.8799 13.9649 18.4786 12.882 16.6425C12.3277 15.7023 11.9091 14.6628 11.9091 14.6628C11.9091 14.6628 11.8284 14.4687 11.6838 14.3642C11.5091 14.238 11.2652 14.1988 11.2652 14.1988L8.67453 14.2153C8.67453 14.2153 8.28518 14.2258 8.14239 14.3921C8.01556 14.5392 8.13263 14.8448 8.13263 14.8448C8.13263 14.8448 10.161 19.5032 12.4581 21.8512C14.5644 24.0033 16.9555 23.8622 16.9555 23.8622H18.0393Z" stroke="white"/>
</svg>
