<svg width="40" height="40" viewBox="0 0 40 40" fill="none" xmlns="http://www.w3.org/2000/svg">
<circle cx="20" cy="20" r="19.5" stroke="#525252"/>
<path d="M21.6261 23.024C21.6261 22.7253 21.5301 22.464 21.3381 22.24C21.1568 22.0053 20.9168 21.808 20.6181 21.648C20.3195 21.4773 19.9888 21.3173 19.6261 21.168C19.2741 21.008 18.9168 20.832 18.5541 20.64C18.1915 20.4373 17.8608 20.2187 17.5621 19.984C17.2635 19.7387 17.0181 19.424 16.8261 19.04C16.6448 18.6453 16.5541 18.2027 16.5541 17.712C16.5541 16.8373 16.8688 16.1067 17.4981 15.52C18.1381 14.9227 18.9861 14.624 20.0421 14.624C21.4501 14.624 22.5168 15.024 23.2421 15.824L22.1861 17.296C21.6101 16.7413 20.9488 16.464 20.2021 16.464C19.7221 16.464 19.3381 16.576 19.0501 16.8C18.7728 17.024 18.6341 17.3227 18.6341 17.696C18.6341 18.0587 18.7568 18.3733 19.0021 18.64C19.2581 18.9067 19.5728 19.12 19.9461 19.28C20.3195 19.4293 20.7248 19.6107 21.1621 19.824C21.6101 20.0373 22.0208 20.2613 22.3941 20.496C22.7675 20.72 23.0768 21.0507 23.3221 21.488C23.5781 21.9147 23.7061 22.4213 23.7061 23.008C23.7061 23.936 23.3488 24.6987 22.6341 25.296C21.9195 25.8827 21.0288 26.176 19.9621 26.176C19.1941 26.176 18.4528 26.0213 17.7381 25.712C17.0341 25.392 16.5541 24.96 16.2981 24.416L17.4181 23.072C17.7275 23.4773 18.1168 23.792 18.5861 24.016C19.0661 24.2293 19.5355 24.336 19.9941 24.336C20.4741 24.336 20.8635 24.224 21.1621 24C21.4715 23.7653 21.6261 23.44 21.6261 23.024Z" fill="#525252"/>
</svg>
