<svg width="56" height="56" viewBox="0 0 56 56" fill="none" xmlns="http://www.w3.org/2000/svg">
<path d="M0 0H56V56H0V0Z" fill="white"/>
<path d="M27.9997 41.0546C27.0365 40.195 25.9479 39.3007 24.7965 38.3493H24.7816C20.7272 35.0128 16.1322 31.2374 14.1028 26.7136C13.4361 25.2733 13.0827 23.7064 13.0664 22.1176C13.062 19.9375 13.9307 17.8477 15.4764 16.3204C17.022 14.7931 19.1141 13.9572 21.2798 14.0017C23.0428 14.0045 24.7679 14.5173 26.2496 15.4791C26.9006 15.9044 27.4897 16.4188 27.9997 17.0076C28.5127 16.4211 29.1019 15.907 29.7514 15.4791C31.2324 14.5171 32.9571 14.0043 34.7197 14.0017C36.8854 13.9572 38.9774 14.7931 40.5231 16.3204C42.0687 17.8477 42.9375 19.9375 42.9331 22.1176C42.9178 23.7089 42.5645 25.2786 41.8967 26.7211C39.8672 31.2449 35.2738 35.0188 31.2194 38.3493L31.2044 38.3614C30.0516 39.3067 28.9644 40.201 28.0012 41.0667L27.9997 41.0546ZM21.2798 17.0076C19.8887 16.9901 18.5471 17.5259 17.5464 18.4985C16.5823 19.4516 16.0435 20.7575 16.053 22.1176C16.07 23.2756 16.3306 24.4169 16.8177 25.4661C17.7757 27.418 19.0683 29.1845 20.6361 30.6843C22.116 32.1873 23.8184 33.6421 25.2908 34.8655C25.6985 35.2037 26.1137 35.5449 26.5288 35.886L26.7901 36.1009C27.1889 36.4286 27.601 36.7683 27.9997 37.1019L28.0192 37.0839L28.0281 37.0764H28.0371L28.0505 37.0658H28.058H28.0654L28.0923 37.0433L28.1536 36.9937L28.164 36.9847L28.1804 36.9727H28.1894L28.2028 36.9606L29.1944 36.1415L29.4542 35.9266C29.8739 35.5824 30.289 35.2413 30.6967 34.9031C32.1691 33.6797 33.873 32.2264 35.3529 30.7159C36.9209 29.2168 38.2136 27.4508 39.1713 25.4992C39.6672 24.4408 39.9315 23.2876 39.9464 22.1176C39.9526 20.7617 39.414 19.4608 38.4531 18.5105C37.4543 17.5335 36.1124 16.9933 34.7197 17.0076C33.0202 16.993 31.3955 17.71 30.2547 18.9779L27.9997 21.5931L25.7448 18.9779C24.604 17.71 22.9793 16.993 21.2798 17.0076Z" fill="#611089"/>
<path d="M0 0V-3H-3V0H0ZM56 0H59V-3H56V0ZM56 56V59H59V56H56ZM0 56H-3V59H0V56ZM0 3H56V-3H0V3ZM53 0V56H59V0H53ZM56 53H0V59H56V53ZM3 56V0H-3V56H3Z" fill="#611089"/>
</svg>
