<svg width="60" height="60" viewBox="0 0 60 60" fill="none" xmlns="http://www.w3.org/2000/svg">
<path d="M30 17.9C26.809 17.9 24.2222 20.4967 24.2222 23.7C24.2222 26.9033 26.809 29.5 30 29.5C33.191 29.5 35.7778 26.9033 35.7778 23.7C35.7778 20.4967 33.191 17.9 30 17.9ZM21.3333 23.7C21.3333 18.8951 25.2135 15 30 15C34.7865 15 38.6667 18.8951 38.6667 23.7C38.6667 28.5049 34.7865 32.4 30 32.4C25.2135 32.4 21.3333 28.5049 21.3333 23.7ZM24.2222 38.2C21.829 38.2 19.8889 40.1476 19.8889 42.55C19.8889 43.3508 19.2422 44 18.4444 44C17.6467 44 17 43.3508 17 42.55C17 38.5459 20.2335 35.3 24.2222 35.3H35.7778C39.7665 35.3 43 38.5459 43 42.55C43 43.3508 42.3533 44 41.5556 44C40.7578 44 40.1111 43.3508 40.1111 42.55C40.1111 40.1476 38.171 38.2 35.7778 38.2H24.2222Z" fill="#611089"/>
</svg>
