<svg width="60" height="60" viewBox="0 0 60 60" fill="none" xmlns="http://www.w3.org/2000/svg">
<path d="M18.9989 18.8002L21.6128 35.79C21.6318 35.9302 21.6716 36.0639 21.7289 36.1877C21.9016 36.5605 22.2334 36.8446 22.6372 36.9526C22.7606 36.9858 22.8899 37.0023 23.0221 37H38.4C39.0182 37 39.5633 36.5945 39.7409 36.0023L43.9409 22.0024C44.0681 21.5786 43.9874 21.1195 43.7232 20.7645C43.459 20.4094 43.0425 20.2002 42.6 20.2002H22.0473L21.5868 17.2073C21.5696 17.0821 21.5358 16.9623 21.4877 16.85C21.4005 16.6455 21.267 16.4683 21.102 16.3295C20.949 16.2004 20.7678 16.1035 20.5691 16.0494C20.4441 16.0151 20.3128 15.998 20.1786 16.0002H15.4C14.6268 16.0002 14 16.627 14 17.4002C14 18.1734 14.6268 18.8002 15.4 18.8002H18.9989ZM24.2011 34.2001L22.478 23.0001H40.7183L37.3583 34.2001H24.2011Z" fill="#611089"/>
<path d="M27.2 41.2C27.2 42.7464 25.9464 44 24.4 44C22.8536 44 21.6 42.7464 21.6 41.2C21.6 39.6536 22.8536 38.4 24.4 38.4C25.9464 38.4 27.2 39.6536 27.2 41.2Z" fill="#611089"/>
<path d="M39.8 41.2C39.8 42.7464 38.5464 44 37 44C35.4536 44 34.2 42.7464 34.2 41.2C34.2 39.6536 35.4536 38.4 37 38.4C38.5464 38.4 39.8 39.6536 39.8 41.2Z" fill="#611089"/>
</svg>
