<svg width="60" height="60" viewBox="0 0 60 60" fill="none" xmlns="http://www.w3.org/2000/svg">
<path d="M30 43.9871C28.968 43.066 27.8016 42.1079 26.568 41.0886H26.552C22.208 37.5137 17.2848 33.4687 15.1104 28.6217C14.3961 27.0786 14.0175 25.3997 14 23.6974C13.9952 21.3616 14.9261 19.1225 16.5821 17.4861C18.2382 15.8497 20.4797 14.9541 22.8 15.0018C24.689 15.0048 26.5373 15.5543 28.1248 16.5847C28.8224 17.0404 29.4535 17.5916 30 18.2224C30.5496 17.5941 31.1809 17.0432 31.8768 16.5847C33.4636 15.5541 35.3114 15.0046 37.2 15.0018C39.5203 14.9541 41.7618 15.8497 43.4179 17.4861C45.0739 19.1225 46.0048 21.3616 46 23.6974C45.9837 25.4024 45.605 27.0842 44.8896 28.6297C42.7152 33.4767 37.7936 37.5202 33.4496 41.0886L33.4336 41.1015C32.1984 42.1143 31.0336 43.0725 30.0016 44L30 43.9871ZM22.8 18.2224C21.3096 18.2036 19.8721 18.7777 18.8 19.8198C17.767 20.841 17.1897 22.2402 17.1999 23.6974C17.2182 24.9381 17.4974 26.1609 18.0192 27.2851C19.0456 29.3764 20.4306 31.2691 22.1104 32.8761C23.696 34.4864 25.52 36.0451 27.0976 37.3559C27.5344 37.7182 27.9792 38.0838 28.424 38.4493L28.704 38.6796C29.1312 39.0306 29.5728 39.3946 30 39.752L30.0208 39.7327L30.0304 39.7247H30.04L30.0544 39.7134H30.0624H30.0704L30.0992 39.6892L30.1648 39.6361L30.176 39.6264L30.1936 39.6136H30.2032L30.2176 39.6007L31.28 38.7231L31.5584 38.4928C32.008 38.124 32.4528 37.7585 32.8896 37.3962C34.4672 36.0854 36.2928 34.5282 37.8784 32.9099C39.5584 31.3037 40.9434 29.4116 41.9696 27.3206C42.5009 26.1866 42.7841 24.951 42.8 23.6974C42.8066 22.2447 42.2296 20.8509 41.2 19.8327C40.1299 18.7859 38.6922 18.2071 37.2 18.2224C35.3791 18.2068 33.6383 18.975 32.416 20.3335L30 23.1354L27.584 20.3335C26.3617 18.975 24.6209 18.2068 22.8 18.2224Z" fill="#611089"/>
</svg>
