<svg width="160" height="60" viewBox="0 0 160 60" fill="none" xmlns="http://www.w3.org/2000/svg">
<path d="M11.61 42.9998C11.8393 42.9998 12.083 42.8135 12.341 42.4408C12.599 42.0395 12.728 41.3658 12.728 40.4198L12.685 31.5618C11.8823 30.5585 11.008 29.4835 10.062 28.3368C9.116 27.1902 8.18433 26.0578 7.267 24.9398C6.34967 23.8218 5.51833 22.8185 4.773 21.9298C4.05633 21.0125 3.49733 20.3245 3.096 19.8658C2.29333 18.8912 1.61967 18.2032 1.075 17.8018C0.559 17.4005 0.200667 17.1998 0 17.1998H10.148C9.94733 17.2285 9.87567 17.4435 9.933 17.8448C9.99033 18.2462 10.3487 18.9198 11.008 19.8658C11.3233 20.2958 11.6817 20.8262 12.083 21.4568C12.513 22.0588 12.9573 22.7182 13.416 23.4348C13.8747 24.1515 14.319 24.8538 14.749 25.5418C15.2077 26.2298 15.6233 26.8605 15.996 27.4338H16.039C16.469 26.8032 16.899 26.1725 17.329 25.5418C17.759 24.8825 18.189 24.2375 18.619 23.6068C19.049 22.9762 19.479 22.3455 19.909 21.7148C20.339 21.0555 20.769 20.4105 21.199 19.7798C21.8583 18.8052 22.2167 18.1315 22.274 17.7588C22.3313 17.3862 22.2597 17.1998 22.059 17.1998H31.949C31.777 17.2285 31.4473 17.4292 30.96 17.8018C30.4727 18.1745 29.842 18.8195 29.068 19.7368C28.638 20.2242 28.036 20.9265 27.262 21.8438C26.5167 22.7325 25.6853 23.7502 24.768 24.8968C23.8507 26.0148 22.9047 27.1615 21.93 28.3368C20.984 29.4835 20.1097 30.5585 19.307 31.5618V40.4198C19.307 41.3658 19.393 42.0395 19.565 42.4408C19.7657 42.8135 19.9663 42.9998 20.167 42.9998H11.61ZM38.7037 43.4298C36.1237 43.4298 34.0597 42.9282 32.5117 41.9248C30.9924 40.8928 30.2327 39.2445 30.2327 36.9798C30.2327 35.4032 30.634 34.1275 31.4367 33.1528C32.2394 32.1782 33.3287 31.4615 34.7047 31.0028C36.1094 30.5155 37.7004 30.2718 39.4777 30.2718C40.7964 30.2718 41.9144 30.3865 42.8317 30.6158C43.7777 30.8452 44.5374 31.0888 45.1107 31.3468C45.684 31.6048 46.0567 31.7912 46.2287 31.9058C46.2287 30.7018 46.0997 29.7272 45.8417 28.9818C45.5837 28.2078 45.1107 27.6488 44.4227 27.3048C43.7634 26.9322 42.8317 26.7458 41.6277 26.7458C39.879 26.7458 38.331 26.9178 36.9837 27.2618C35.6364 27.6058 34.5327 28.0072 33.6727 28.4658C32.8414 28.9245 32.268 29.3115 31.9527 29.6268V28.3368L31.5227 24.1228C31.7234 24.0082 32.2537 23.8218 33.1137 23.5638C33.9737 23.3058 35.149 23.0622 36.6397 22.8328C38.1304 22.5748 39.9077 22.4458 41.9717 22.4458C44.8097 22.4458 46.974 22.8615 48.4647 23.6928C49.9554 24.4955 50.973 25.6565 51.5177 27.1758C52.091 28.6952 52.3777 30.5298 52.3777 32.6798V40.4198C52.3777 41.2225 52.4637 41.8102 52.6357 42.1828C52.8364 42.5268 53.037 42.7992 53.2377 42.9998H46.2717V42.0968L46.3577 41.2798L46.2717 41.1938C46.0424 41.4518 45.7127 41.7098 45.2827 41.9678C44.8527 42.2258 44.3224 42.4695 43.6917 42.6988C43.061 42.8995 42.33 43.0715 41.4987 43.2148C40.6674 43.3582 39.7357 43.4298 38.7037 43.4298ZM40.7247 39.0868C41.9287 39.0868 42.932 39.0008 43.7347 38.8288C44.566 38.6282 45.1967 38.3702 45.6267 38.0548C46.0567 37.7108 46.2717 37.3095 46.2717 36.8508C46.2717 36.1915 45.77 35.6468 44.7667 35.2168C43.792 34.7868 42.459 34.5718 40.7677 34.5718C39.1337 34.5718 37.9727 34.8012 37.2847 35.2598C36.6254 35.7185 36.2957 36.2918 36.2957 36.9798C36.2957 37.8398 36.6827 38.4132 37.4567 38.6998C38.2307 38.9578 39.32 39.0868 40.7247 39.0868ZM56.7758 42.9998C56.9765 42.9998 57.1628 42.7992 57.3348 42.3978C57.5355 41.9965 57.6358 41.3372 57.6358 40.4198V25.8858C57.6358 24.9685 57.5355 24.3235 57.3348 23.9508C57.1628 23.5495 56.9765 23.3345 56.7758 23.3058C58.0371 23.3058 59.3271 23.2198 60.6458 23.0478C61.9645 22.8472 62.9965 22.6465 63.7418 22.4458V24.1658L63.6558 24.8968L63.7418 24.9828C63.9425 24.6675 64.2578 24.3235 64.6878 23.9508C65.1465 23.5495 65.7198 23.2055 66.4078 22.9188C67.1245 22.6035 67.9558 22.4458 68.9018 22.4458C70.3065 22.4458 71.5535 22.6465 72.6428 23.0478C73.7321 23.4205 74.5061 23.8075 74.9648 24.2088L73.6748 29.9708V31.2608C73.2448 30.6588 72.6571 30.0425 71.9118 29.4118C71.1951 28.7812 70.3925 28.2508 69.5038 27.8208C68.6438 27.3908 67.7551 27.1758 66.8378 27.1758C65.8058 27.1758 65.0318 27.5485 64.5158 28.2938C63.9998 29.0392 63.7418 30.2145 63.7418 31.8198V40.4198C63.7418 41.3372 63.8278 41.9965 63.9998 42.3978C64.2005 42.7992 64.4011 42.9998 64.6018 42.9998H56.7758ZM77.7299 42.9998C77.9306 42.9998 78.1169 42.7992 78.2889 42.3978C78.4896 41.9965 78.5899 41.3372 78.5899 40.4198V25.8858C78.5899 24.9685 78.4896 24.3235 78.2889 23.9508C78.1169 23.5495 77.9306 23.3345 77.7299 23.3058C78.9912 23.3058 80.2812 23.2198 81.5999 23.0478C82.9186 22.8472 83.9506 22.6465 84.6959 22.4458V25.0688L84.6099 25.6278L84.6959 25.7138C84.7819 25.5132 85.0542 25.1548 85.5129 24.6388C85.9716 24.1228 86.6309 23.6355 87.4909 23.1768C88.3509 22.6895 89.4116 22.4458 90.6729 22.4458C93.3389 22.4458 95.3742 23.2055 96.7789 24.7248C98.2122 26.2442 98.9289 28.6235 98.9289 31.8628V40.4198C98.9289 41.3372 99.0149 41.9965 99.1869 42.3978C99.3876 42.7992 99.5882 42.9998 99.7889 42.9998H91.9629C92.1636 42.9998 92.3499 42.7992 92.5219 42.3978C92.7226 41.9965 92.8229 41.3372 92.8229 40.4198V31.9918C92.8229 30.6445 92.6796 29.5982 92.3929 28.8528C92.1062 28.0788 91.7049 27.5342 91.1889 27.2188C90.7016 26.9035 90.1282 26.7458 89.4689 26.7458C88.6662 26.7458 87.8922 26.9465 87.1469 27.3478C86.4302 27.7205 85.8426 28.3225 85.3839 29.1538C84.9252 29.9565 84.6959 31.0315 84.6959 32.3788V40.4198C84.6959 41.3372 84.7819 41.9965 84.9539 42.3978C85.1546 42.7992 85.3552 42.9998 85.5559 42.9998H77.7299ZM117.106 43.4298C112.175 43.4298 108.606 42.2545 106.399 39.9038C104.22 37.5245 103.131 34.2135 103.131 29.9708C103.131 27.2475 103.604 24.9112 104.55 22.9618C105.525 20.9838 107.03 19.4645 109.065 18.4038C111.129 17.3145 113.809 16.7698 117.106 16.7698H118.439C121.678 16.7698 124.301 17.3002 126.308 18.3608C128.343 19.4215 129.834 20.9408 130.78 22.9188C131.726 24.8968 132.199 27.2475 132.199 29.9708C132.199 34.2135 131.11 37.5245 128.931 39.9038C126.752 42.2545 123.255 43.4298 118.439 43.4298H117.106ZM117.536 38.6568H118.009C119.758 38.6568 121.191 38.3702 122.309 37.7968C123.456 37.2235 124.301 36.3062 124.846 35.0448C125.391 33.7548 125.663 32.0635 125.663 29.9708C125.663 27.9355 125.376 26.3015 124.803 25.0688C124.258 23.8075 123.413 22.9045 122.266 22.3598C121.148 21.7865 119.729 21.4998 118.009 21.4998H117.536C115.759 21.4998 114.282 21.8008 113.107 22.4028C111.932 22.9762 111.057 23.8792 110.484 25.1118C109.939 26.3445 109.667 27.9642 109.667 29.9708C109.667 32.0635 109.954 33.7548 110.527 35.0448C111.129 36.3062 112.003 37.2235 113.15 37.7968C114.325 38.3702 115.787 38.6568 117.536 38.6568ZM135.805 42.9998C136.006 42.9998 136.192 42.7992 136.364 42.3978C136.565 41.9965 136.665 41.3372 136.665 40.4198V15.9098C136.665 14.9925 136.565 14.3475 136.364 13.9748C136.192 13.5735 136.006 13.3585 135.805 13.3298H142.771V29.5838C142.771 30.2145 142.814 30.6015 142.9 30.7448C142.986 30.8595 143.244 30.9168 143.674 30.9168C144.333 30.9168 145.007 30.7018 145.695 30.2718C146.383 29.8418 147.014 29.2255 147.587 28.4228C148.16 27.5915 148.562 26.6168 148.791 25.4988C148.992 24.5528 149.078 23.8792 149.049 23.4778C149.02 23.0765 148.934 22.8758 148.791 22.8758H157.52C157.319 22.8758 157.018 23.0765 156.617 23.4778C156.244 23.8505 155.814 24.5242 155.327 25.4988C154.754 26.6742 154.166 27.7348 153.564 28.6808C152.962 29.5982 152.331 30.3865 151.672 31.0458C151.013 31.6765 150.296 32.1925 149.522 32.5938C150.869 33.1672 152.002 33.8982 152.919 34.7868C153.836 35.6468 154.625 36.5785 155.284 37.5818C155.972 38.5565 156.603 39.5025 157.176 40.4198C157.749 41.3372 158.251 41.9965 158.681 42.3978C159.14 42.7992 159.469 42.9998 159.67 42.9998H150.984C151.156 42.9712 151.213 42.7275 151.156 42.2688C151.127 41.8102 150.841 41.0505 150.296 39.9898C149.751 38.9005 149.106 37.9832 148.361 37.2378C147.644 36.4638 146.87 35.8762 146.039 35.4748C145.236 35.0735 144.448 34.8728 143.674 34.8728C143.215 34.8728 142.943 34.9302 142.857 35.0448C142.8 35.1308 142.771 35.5035 142.771 36.1628V40.4198C142.771 41.3372 142.857 41.9965 143.029 42.3978C143.23 42.7992 143.43 42.9998 143.631 42.9998H135.805Z" fill="#611089"/>
</svg>
