<svg width="188" height="48" viewBox="0 0 188 48" fill="none" xmlns="http://www.w3.org/2000/svg">
<path d="M49.56 33C49.7093 33 49.868 32.8787 50.036 32.636C50.204 32.3747 50.288 31.936 50.288 31.32L50.26 25.552C49.7373 24.8987 49.168 24.1987 48.552 23.452C47.936 22.7053 47.3293 21.968 46.732 21.24C46.1347 20.512 45.5933 19.8587 45.108 19.28C44.6413 18.6827 44.2773 18.2347 44.016 17.936C43.4933 17.3013 43.0547 16.8533 42.7 16.592C42.364 16.3307 42.1307 16.2 42 16.2H48.608C48.4773 16.2187 48.4307 16.3587 48.468 16.62C48.5053 16.8813 48.7387 17.32 49.168 17.936C49.3733 18.216 49.6067 18.5613 49.868 18.972C50.148 19.364 50.4373 19.7933 50.736 20.26C51.0347 20.7267 51.324 21.184 51.604 21.632C51.9027 22.08 52.1733 22.4907 52.416 22.864H52.444C52.724 22.4533 53.004 22.0427 53.284 21.632C53.564 21.2027 53.844 20.7827 54.124 20.372C54.404 19.9613 54.684 19.5507 54.964 19.14C55.244 18.7107 55.524 18.2907 55.804 17.88C56.2333 17.2453 56.4667 16.8067 56.504 16.564C56.5413 16.3213 56.4947 16.2 56.364 16.2H62.804C62.692 16.2187 62.4773 16.3493 62.16 16.592C61.8427 16.8347 61.432 17.2547 60.928 17.852C60.648 18.1693 60.256 18.6267 59.752 19.224C59.2667 19.8027 58.7253 20.4653 58.128 21.212C57.5307 21.94 56.9147 22.6867 56.28 23.452C55.664 24.1987 55.0947 24.8987 54.572 25.552V31.32C54.572 31.936 54.628 32.3747 54.74 32.636C54.8707 32.8787 55.0013 33 55.132 33H49.56ZM69.4446 33.28C67.7646 33.28 66.4206 32.9533 65.4126 32.3C64.4233 31.628 63.9286 30.5547 63.9286 29.08C63.9286 28.0533 64.1899 27.2227 64.7126 26.588C65.2353 25.9533 65.9446 25.4867 66.8406 25.188C67.7553 24.8707 68.7913 24.712 69.9486 24.712C70.8073 24.712 71.5353 24.7867 72.1326 24.936C72.7486 25.0853 73.2433 25.244 73.6166 25.412C73.9899 25.58 74.2326 25.7013 74.3446 25.776C74.3446 24.992 74.2606 24.3573 74.0926 23.872C73.9246 23.368 73.6166 23.004 73.1686 22.78C72.7393 22.5373 72.1326 22.416 71.3486 22.416C70.2099 22.416 69.2019 22.528 68.3246 22.752C67.4473 22.976 66.7286 23.2373 66.1686 23.536C65.6273 23.8347 65.2539 24.0867 65.0486 24.292V23.452L64.7686 20.708C64.8993 20.6333 65.2446 20.512 65.8046 20.344C66.3646 20.176 67.1299 20.0173 68.1006 19.868C69.0713 19.7 70.2286 19.616 71.5726 19.616C73.4206 19.616 74.8299 19.8867 75.8006 20.428C76.7713 20.9507 77.4339 21.7067 77.7886 22.696C78.1619 23.6853 78.3486 24.88 78.3486 26.28V31.32C78.3486 31.8427 78.4046 32.2253 78.5166 32.468C78.6473 32.692 78.7779 32.8693 78.9086 33H74.3726V32.412L74.4286 31.88L74.3726 31.824C74.2233 31.992 74.0086 32.16 73.7286 32.328C73.4486 32.496 73.1033 32.6547 72.6926 32.804C72.2819 32.9347 71.8059 33.0467 71.2646 33.14C70.7233 33.2333 70.1166 33.28 69.4446 33.28ZM70.7606 30.452C71.5446 30.452 72.1979 30.396 72.7206 30.284C73.2619 30.1533 73.6726 29.9853 73.9526 29.78C74.2326 29.556 74.3726 29.2947 74.3726 28.996C74.3726 28.5667 74.0459 28.212 73.3926 27.932C72.7579 27.652 71.8899 27.512 70.7886 27.512C69.7246 27.512 68.9686 27.6613 68.5206 27.96C68.0913 28.2587 67.8766 28.632 67.8766 29.08C67.8766 29.64 68.1286 30.0133 68.6326 30.2C69.1366 30.368 69.8459 30.452 70.7606 30.452ZM81.2125 33C81.3431 33 81.4645 32.8693 81.5765 32.608C81.7071 32.3467 81.7725 31.9173 81.7725 31.32V21.856C81.7725 21.2587 81.7071 20.8387 81.5765 20.596C81.4645 20.3347 81.3431 20.1947 81.2125 20.176C82.0338 20.176 82.8738 20.12 83.7325 20.008C84.5911 19.8773 85.2631 19.7467 85.7485 19.616V20.736L85.6925 21.212L85.7485 21.268C85.8791 21.0627 86.0845 20.8387 86.3645 20.596C86.6631 20.3347 87.0365 20.1107 87.4845 19.924C87.9511 19.7187 88.4925 19.616 89.1085 19.616C90.0231 19.616 90.8351 19.7467 91.5445 20.008C92.2538 20.2507 92.7578 20.5027 93.0565 20.764L92.2165 24.516V25.356C91.9365 24.964 91.5538 24.5627 91.0685 24.152C90.6018 23.7413 90.0791 23.396 89.5005 23.116C88.9405 22.836 88.3618 22.696 87.7645 22.696C87.0925 22.696 86.5885 22.9387 86.2525 23.424C85.9165 23.9093 85.7485 24.6747 85.7485 25.72V31.32C85.7485 31.9173 85.8045 32.3467 85.9165 32.608C86.0471 32.8693 86.1778 33 86.3085 33H81.2125ZM94.857 33C94.9877 33 95.109 32.8693 95.221 32.608C95.3517 32.3467 95.417 31.9173 95.417 31.32V21.856C95.417 21.2587 95.3517 20.8387 95.221 20.596C95.109 20.3347 94.9877 20.1947 94.857 20.176C95.6783 20.176 96.5183 20.12 97.377 20.008C98.2357 19.8773 98.9077 19.7467 99.393 19.616V21.324L99.337 21.688L99.393 21.744C99.449 21.6133 99.6263 21.38 99.925 21.044C100.224 20.708 100.653 20.3907 101.213 20.092C101.773 19.7747 102.464 19.616 103.285 19.616C105.021 19.616 106.346 20.1107 107.261 21.1C108.194 22.0893 108.661 23.6387 108.661 25.748V31.32C108.661 31.9173 108.717 32.3467 108.829 32.608C108.96 32.8693 109.09 33 109.221 33H104.125C104.256 33 104.377 32.8693 104.489 32.608C104.62 32.3467 104.685 31.9173 104.685 31.32V25.832C104.685 24.9547 104.592 24.2733 104.405 23.788C104.218 23.284 103.957 22.9293 103.621 22.724C103.304 22.5187 102.93 22.416 102.501 22.416C101.978 22.416 101.474 22.5467 100.989 22.808C100.522 23.0507 100.14 23.4427 99.841 23.984C99.5423 24.5067 99.393 25.2067 99.393 26.084V31.32C99.393 31.9173 99.449 32.3467 99.561 32.608C99.6917 32.8693 99.8223 33 99.953 33H94.857ZM120.497 33.28C117.287 33.28 114.963 32.5147 113.525 30.984C112.107 29.4347 111.397 27.2787 111.397 24.516C111.397 22.7427 111.705 21.2213 112.321 19.952C112.956 18.664 113.936 17.6747 115.261 16.984C116.605 16.2747 118.351 15.92 120.497 15.92H121.365C123.475 15.92 125.183 16.2653 126.489 16.956C127.815 17.6467 128.785 18.636 129.401 19.924C130.017 21.212 130.325 22.7427 130.325 24.516C130.325 27.2787 129.616 29.4347 128.197 30.984C126.779 32.5147 124.501 33.28 121.365 33.28H120.497ZM120.777 30.172H121.085C122.224 30.172 123.157 29.9853 123.885 29.612C124.632 29.2387 125.183 28.6413 125.537 27.82C125.892 26.98 126.069 25.8787 126.069 24.516C126.069 23.1907 125.883 22.1267 125.509 21.324C125.155 20.5027 124.604 19.9147 123.857 19.56C123.129 19.1867 122.205 19 121.085 19H120.777C119.62 19 118.659 19.196 117.893 19.588C117.128 19.9613 116.559 20.5493 116.185 21.352C115.831 22.1547 115.653 23.2093 115.653 24.516C115.653 25.8787 115.84 26.98 116.213 27.82C116.605 28.6413 117.175 29.2387 117.921 29.612C118.687 29.9853 119.639 30.172 120.777 30.172ZM132.673 33C132.804 33 132.925 32.8693 133.037 32.608C133.168 32.3467 133.233 31.9173 133.233 31.32V15.36C133.233 14.7627 133.168 14.3427 133.037 14.1C132.925 13.8387 132.804 13.6987 132.673 13.68H137.209V24.264C137.209 24.6747 137.237 24.9267 137.293 25.02C137.349 25.0947 137.517 25.132 137.797 25.132C138.227 25.132 138.665 24.992 139.113 24.712C139.561 24.432 139.972 24.0307 140.345 23.508C140.719 22.9667 140.98 22.332 141.129 21.604C141.26 20.988 141.316 20.5493 141.297 20.288C141.279 20.0267 141.223 19.896 141.129 19.896H146.813C146.683 19.896 146.487 20.0267 146.225 20.288C145.983 20.5307 145.703 20.9693 145.385 21.604C145.012 22.3693 144.629 23.06 144.237 23.676C143.845 24.2733 143.435 24.7867 143.005 25.216C142.576 25.6267 142.109 25.9627 141.605 26.224C142.483 26.5973 143.22 27.0733 143.817 27.652C144.415 28.212 144.928 28.8187 145.357 29.472C145.805 30.1067 146.216 30.7227 146.589 31.32C146.963 31.9173 147.289 32.3467 147.569 32.608C147.868 32.8693 148.083 33 148.213 33H142.557C142.669 32.9813 142.707 32.8227 142.669 32.524C142.651 32.2253 142.464 31.7307 142.109 31.04C141.755 30.3307 141.335 29.7333 140.849 29.248C140.383 28.744 139.879 28.3613 139.337 28.1C138.815 27.8387 138.301 27.708 137.797 27.708C137.499 27.708 137.321 27.7453 137.265 27.82C137.228 27.876 137.209 28.1187 137.209 28.548V31.32C137.209 31.9173 137.265 32.3467 137.377 32.608C137.508 32.8693 137.639 33 137.769 33H132.673Z" fill="#611089"/>
</svg>
